<svg id="cesium-bentley-logo_svg__Layer_1" xmlns="http://www.w3.org/2000/svg" x="0" y="0" viewBox="0 0 128 128" xml:space="preserve"><style>.cesium-bentley-logo_svg__st0{fill:#fff}</style><path d="M110.1 52.9c-1.8 0-3.5 1-4.8 2.8L88.4 78c-2.8 3.7-6.8 5.8-10.9 5.8h-.1c-4.1 0-8.1-2.1-10.9-5.8L49.8 55.7c-1.3-1.8-3-2.8-4.8-2.8-1.8 0-3.5 1-4.8 2.8L23.3 78c-2.8 3.7-6.7 5.8-10.8 5.8 8.6 18.1 27 30.7 48.4 30.7 29.6 0 53.6-24 53.6-53.6 0-2.1-.2-4.2-.4-6.2-1.2-1.1-2.6-1.8-4-1.8" fill="#709c49"></path><path d="M78.8 41.3c-3.1 0-5.6-2.5-5.6-5.6s2.5-5.6 5.6-5.6c3.1 0 5.6 2.5 5.6 5.6 0 3.1-2.5 5.6-5.6 5.6m-17.9-34c-29.6 0-53.6 24-53.6 53.6 0 4.7.7 9.2 1.8 13.6 1 .8 2.1 1.2 3.3 1.2 1.8 0 3.5-1 4.8-2.7l16.9-22.3c2.8-3.7 6.8-5.8 10.9-5.8s8 2.1 10.8 5.8L72 72.2l.7.9c1.3 1.8 3 2.7 4.8 2.7 1.8 0 3.5-1 4.8-2.7l.7-.9 16.2-21.5c2.8-3.7 6.8-5.8 10.9-5.8.7 0 1.3.1 1.9.2-6.7-21.9-27-37.8-51.1-37.8" fill="#6dabe4"></path></svg>